<mxfile host="app.diagrams.net" modified="2023-04-28T11:17:52.902Z" agent="Mozilla/5.0 (Windows NT 10.0; Win64; x64) AppleWebKit/537.36 (KHTML, like Gecko) Chrome/112.0.0.0 Safari/537.36" etag="N-nIzHjd-h5bPnhLxcjF" version="21.2.3" type="github">
  <diagram name="Page-1" id="86RuRaZg0EzDN-bKP2kS">
    <mxGraphModel dx="954" dy="616" grid="1" gridSize="10" guides="1" tooltips="1" connect="1" arrows="1" fold="1" page="1" pageScale="1" pageWidth="850" pageHeight="1100" math="0" shadow="0">
      <root>
        <mxCell id="0" />
        <mxCell id="1" parent="0" />
        <mxCell id="7Uef_rGNitI4kY9C16Pc-1" value="Subject" style="ellipse;whiteSpace=wrap;html=1;fillColor=#fff2cc;strokeColor=#d6b656;" vertex="1" parent="1">
          <mxGeometry x="230" y="350" width="50" height="30" as="geometry" />
        </mxCell>
        <mxCell id="7Uef_rGNitI4kY9C16Pc-2" value="Teacher" style="rounded=0;whiteSpace=wrap;html=1;fillColor=#dae8fc;strokeColor=#6c8ebf;" vertex="1" parent="1">
          <mxGeometry x="160" y="240" width="120" height="60" as="geometry" />
        </mxCell>
        <mxCell id="7Uef_rGNitI4kY9C16Pc-3" value="works&amp;nbsp;&lt;br&gt;for" style="rhombus;whiteSpace=wrap;html=1;fillColor=#f8cecc;strokeColor=#b85450;" vertex="1" parent="1">
          <mxGeometry x="340" y="230" width="80" height="80" as="geometry" />
        </mxCell>
        <mxCell id="7Uef_rGNitI4kY9C16Pc-4" value="Department" style="rounded=0;whiteSpace=wrap;html=1;fillColor=#dae8fc;strokeColor=#6c8ebf;" vertex="1" parent="1">
          <mxGeometry x="480" y="240" width="120" height="60" as="geometry" />
        </mxCell>
        <mxCell id="7Uef_rGNitI4kY9C16Pc-5" value="&lt;u&gt;T_id&lt;/u&gt;" style="ellipse;whiteSpace=wrap;html=1;fillColor=#fff2cc;strokeColor=#d6b656;" vertex="1" parent="1">
          <mxGeometry x="110" y="350" width="50" height="30" as="geometry" />
        </mxCell>
        <mxCell id="7Uef_rGNitI4kY9C16Pc-6" value="Faculities" style="ellipse;whiteSpace=wrap;html=1;fillColor=#fff2cc;strokeColor=#d6b656;" vertex="1" parent="1">
          <mxGeometry x="450" y="350" width="50" height="30" as="geometry" />
        </mxCell>
        <mxCell id="7Uef_rGNitI4kY9C16Pc-7" value="Name" style="ellipse;whiteSpace=wrap;html=1;fillColor=#fff2cc;strokeColor=#d6b656;" vertex="1" parent="1">
          <mxGeometry x="110" y="120" width="60" height="30" as="geometry" />
        </mxCell>
        <mxCell id="7Uef_rGNitI4kY9C16Pc-8" value="Dept.id" style="ellipse;whiteSpace=wrap;html=1;fillColor=#fff2cc;strokeColor=#d6b656;" vertex="1" parent="1">
          <mxGeometry x="560" y="350" width="50" height="30" as="geometry" />
        </mxCell>
        <mxCell id="7Uef_rGNitI4kY9C16Pc-9" value="Courses" style="ellipse;whiteSpace=wrap;html=1;fillColor=#fff2cc;strokeColor=#d6b656;" vertex="1" parent="1">
          <mxGeometry x="650" y="280" width="50" height="30" as="geometry" />
        </mxCell>
        <mxCell id="7Uef_rGNitI4kY9C16Pc-10" value="" style="endArrow=classic;html=1;rounded=0;entryX=0.5;entryY=0;entryDx=0;entryDy=0;" edge="1" parent="1" target="7Uef_rGNitI4kY9C16Pc-5">
          <mxGeometry width="50" height="50" relative="1" as="geometry">
            <mxPoint x="170" y="300" as="sourcePoint" />
            <mxPoint x="140" y="350" as="targetPoint" />
            <Array as="points">
              <mxPoint x="170" y="300" />
            </Array>
          </mxGeometry>
        </mxCell>
        <mxCell id="7Uef_rGNitI4kY9C16Pc-11" value="" style="endArrow=classic;html=1;rounded=0;" edge="1" parent="1">
          <mxGeometry width="50" height="50" relative="1" as="geometry">
            <mxPoint x="510" y="300" as="sourcePoint" />
            <mxPoint x="480" y="350" as="targetPoint" />
            <Array as="points">
              <mxPoint x="510" y="300" />
            </Array>
          </mxGeometry>
        </mxCell>
        <mxCell id="7Uef_rGNitI4kY9C16Pc-13" value="" style="endArrow=classic;html=1;rounded=0;" edge="1" parent="1" target="7Uef_rGNitI4kY9C16Pc-7">
          <mxGeometry width="50" height="50" relative="1" as="geometry">
            <mxPoint x="190" y="240" as="sourcePoint" />
            <mxPoint x="150" y="150" as="targetPoint" />
          </mxGeometry>
        </mxCell>
        <mxCell id="7Uef_rGNitI4kY9C16Pc-16" value="" style="endArrow=classic;html=1;rounded=0;entryX=0.32;entryY=0;entryDx=0;entryDy=0;entryPerimeter=0;" edge="1" parent="1" target="7Uef_rGNitI4kY9C16Pc-1">
          <mxGeometry width="50" height="50" relative="1" as="geometry">
            <mxPoint x="230" y="300" as="sourcePoint" />
            <mxPoint x="250" y="350" as="targetPoint" />
          </mxGeometry>
        </mxCell>
        <mxCell id="7Uef_rGNitI4kY9C16Pc-17" value="" style="endArrow=classic;html=1;rounded=0;entryX=0;entryY=0;entryDx=0;entryDy=0;" edge="1" parent="1" target="7Uef_rGNitI4kY9C16Pc-8">
          <mxGeometry width="50" height="50" relative="1" as="geometry">
            <mxPoint x="550" y="300" as="sourcePoint" />
            <mxPoint x="580" y="350" as="targetPoint" />
            <Array as="points" />
          </mxGeometry>
        </mxCell>
        <mxCell id="7Uef_rGNitI4kY9C16Pc-18" value="" style="endArrow=classic;html=1;rounded=0;entryX=0;entryY=0;entryDx=0;entryDy=0;" edge="1" parent="1" target="7Uef_rGNitI4kY9C16Pc-9">
          <mxGeometry width="50" height="50" relative="1" as="geometry">
            <mxPoint x="600" y="255" as="sourcePoint" />
            <mxPoint x="660" y="285" as="targetPoint" />
            <Array as="points">
              <mxPoint x="600" y="255" />
            </Array>
          </mxGeometry>
        </mxCell>
        <mxCell id="7Uef_rGNitI4kY9C16Pc-28" value="" style="endArrow=none;html=1;rounded=0;" edge="1" parent="1">
          <mxGeometry width="50" height="50" relative="1" as="geometry">
            <mxPoint x="280" y="269.5" as="sourcePoint" />
            <mxPoint x="340" y="269.5" as="targetPoint" />
          </mxGeometry>
        </mxCell>
        <mxCell id="7Uef_rGNitI4kY9C16Pc-29" value="" style="endArrow=none;html=1;rounded=0;" edge="1" parent="1">
          <mxGeometry width="50" height="50" relative="1" as="geometry">
            <mxPoint x="420" y="269.5" as="sourcePoint" />
            <mxPoint x="480" y="269.5" as="targetPoint" />
          </mxGeometry>
        </mxCell>
        <mxCell id="7Uef_rGNitI4kY9C16Pc-32" style="edgeStyle=orthogonalEdgeStyle;rounded=0;orthogonalLoop=1;jettySize=auto;html=1;entryX=0.5;entryY=0;entryDx=0;entryDy=0;" edge="1" parent="1" source="7Uef_rGNitI4kY9C16Pc-30" target="7Uef_rGNitI4kY9C16Pc-31">
          <mxGeometry relative="1" as="geometry">
            <mxPoint x="310" y="460" as="targetPoint" />
            <mxPoint x="340" y="460" as="sourcePoint" />
          </mxGeometry>
        </mxCell>
        <mxCell id="7Uef_rGNitI4kY9C16Pc-79" style="edgeStyle=orthogonalEdgeStyle;rounded=0;orthogonalLoop=1;jettySize=auto;html=1;entryX=0;entryY=0.5;entryDx=0;entryDy=0;" edge="1" parent="1" source="7Uef_rGNitI4kY9C16Pc-30" target="7Uef_rGNitI4kY9C16Pc-50">
          <mxGeometry relative="1" as="geometry" />
        </mxCell>
        <mxCell id="7Uef_rGNitI4kY9C16Pc-85" style="edgeStyle=orthogonalEdgeStyle;rounded=0;orthogonalLoop=1;jettySize=auto;html=1;entryX=1;entryY=0.5;entryDx=0;entryDy=0;" edge="1" parent="1" source="7Uef_rGNitI4kY9C16Pc-30" target="7Uef_rGNitI4kY9C16Pc-84">
          <mxGeometry relative="1" as="geometry" />
        </mxCell>
        <mxCell id="7Uef_rGNitI4kY9C16Pc-34" style="edgeStyle=orthogonalEdgeStyle;rounded=0;orthogonalLoop=1;jettySize=auto;html=1;exitX=0;exitY=0.5;exitDx=0;exitDy=0;entryX=1;entryY=0.5;entryDx=0;entryDy=0;" edge="1" parent="1" source="7Uef_rGNitI4kY9C16Pc-31" target="7Uef_rGNitI4kY9C16Pc-33">
          <mxGeometry relative="1" as="geometry" />
        </mxCell>
        <mxCell id="7Uef_rGNitI4kY9C16Pc-31" value="belongs &lt;br&gt;to" style="rhombus;whiteSpace=wrap;html=1;fillColor=#f8cecc;strokeColor=#b85450;" vertex="1" parent="1">
          <mxGeometry x="300" y="650" width="80" height="80" as="geometry" />
        </mxCell>
        <mxCell id="7Uef_rGNitI4kY9C16Pc-37" value="" style="edgeStyle=orthogonalEdgeStyle;rounded=0;orthogonalLoop=1;jettySize=auto;html=1;" edge="1" parent="1" source="7Uef_rGNitI4kY9C16Pc-33" target="7Uef_rGNitI4kY9C16Pc-35">
          <mxGeometry relative="1" as="geometry" />
        </mxCell>
        <mxCell id="7Uef_rGNitI4kY9C16Pc-42" style="edgeStyle=orthogonalEdgeStyle;rounded=0;orthogonalLoop=1;jettySize=auto;html=1;" edge="1" parent="1" source="7Uef_rGNitI4kY9C16Pc-33">
          <mxGeometry relative="1" as="geometry">
            <mxPoint x="60" y="610" as="targetPoint" />
          </mxGeometry>
        </mxCell>
        <mxCell id="7Uef_rGNitI4kY9C16Pc-44" style="edgeStyle=orthogonalEdgeStyle;rounded=0;orthogonalLoop=1;jettySize=auto;html=1;entryX=0.5;entryY=1;entryDx=0;entryDy=0;" edge="1" parent="1" source="7Uef_rGNitI4kY9C16Pc-33" target="7Uef_rGNitI4kY9C16Pc-38">
          <mxGeometry relative="1" as="geometry" />
        </mxCell>
        <mxCell id="7Uef_rGNitI4kY9C16Pc-49" style="edgeStyle=orthogonalEdgeStyle;rounded=0;orthogonalLoop=1;jettySize=auto;html=1;" edge="1" parent="1" source="7Uef_rGNitI4kY9C16Pc-33" target="7Uef_rGNitI4kY9C16Pc-39">
          <mxGeometry relative="1" as="geometry">
            <Array as="points">
              <mxPoint x="150" y="700" />
              <mxPoint x="190" y="700" />
            </Array>
          </mxGeometry>
        </mxCell>
        <mxCell id="7Uef_rGNitI4kY9C16Pc-33" value="Customer" style="rounded=0;whiteSpace=wrap;html=1;fillColor=#dae8fc;strokeColor=#6c8ebf;" vertex="1" parent="1">
          <mxGeometry x="80" y="650" width="100" height="30" as="geometry" />
        </mxCell>
        <mxCell id="7Uef_rGNitI4kY9C16Pc-35" value="Cust_Id." style="ellipse;whiteSpace=wrap;html=1;fillColor=#fff2cc;strokeColor=#d6b656;" vertex="1" parent="1">
          <mxGeometry x="60" y="730" width="60" height="20" as="geometry" />
        </mxCell>
        <mxCell id="7Uef_rGNitI4kY9C16Pc-38" value="Username" style="ellipse;whiteSpace=wrap;html=1;fillColor=#fff2cc;strokeColor=#d6b656;" vertex="1" parent="1">
          <mxGeometry x="130" y="570" width="60" height="20" as="geometry" />
        </mxCell>
        <mxCell id="7Uef_rGNitI4kY9C16Pc-39" value="Password&lt;br&gt;" style="ellipse;whiteSpace=wrap;html=1;fillColor=#fff2cc;strokeColor=#d6b656;" vertex="1" parent="1">
          <mxGeometry x="160" y="720" width="60" height="20" as="geometry" />
        </mxCell>
        <mxCell id="7Uef_rGNitI4kY9C16Pc-40" value="First_name&lt;br&gt;" style="ellipse;whiteSpace=wrap;html=1;fillColor=#fff2cc;strokeColor=#d6b656;" vertex="1" parent="1">
          <mxGeometry x="40" y="580" width="60" height="20" as="geometry" />
        </mxCell>
        <mxCell id="7Uef_rGNitI4kY9C16Pc-81" value="" style="edgeStyle=orthogonalEdgeStyle;rounded=0;orthogonalLoop=1;jettySize=auto;html=1;" edge="1" parent="1" source="7Uef_rGNitI4kY9C16Pc-50" target="7Uef_rGNitI4kY9C16Pc-74">
          <mxGeometry relative="1" as="geometry" />
        </mxCell>
        <mxCell id="7Uef_rGNitI4kY9C16Pc-50" value="has" style="rhombus;whiteSpace=wrap;html=1;fillColor=#f8cecc;strokeColor=#b85450;" vertex="1" parent="1">
          <mxGeometry x="620" y="570" width="80" height="80" as="geometry" />
        </mxCell>
        <mxCell id="7Uef_rGNitI4kY9C16Pc-52" value="brand_id&lt;br&gt;" style="ellipse;whiteSpace=wrap;html=1;fillColor=#fff2cc;strokeColor=#d6b656;" vertex="1" parent="1">
          <mxGeometry x="770" y="480" width="70" height="30" as="geometry" />
        </mxCell>
        <mxCell id="7Uef_rGNitI4kY9C16Pc-70" style="edgeStyle=orthogonalEdgeStyle;rounded=0;orthogonalLoop=1;jettySize=auto;html=1;entryX=0.24;entryY=1.067;entryDx=0;entryDy=0;entryPerimeter=0;" edge="1" parent="1" source="7Uef_rGNitI4kY9C16Pc-56" target="7Uef_rGNitI4kY9C16Pc-59">
          <mxGeometry relative="1" as="geometry" />
        </mxCell>
        <mxCell id="7Uef_rGNitI4kY9C16Pc-71" style="edgeStyle=orthogonalEdgeStyle;rounded=0;orthogonalLoop=1;jettySize=auto;html=1;entryX=0.5;entryY=1;entryDx=0;entryDy=0;" edge="1" parent="1" source="7Uef_rGNitI4kY9C16Pc-56" target="7Uef_rGNitI4kY9C16Pc-52">
          <mxGeometry relative="1" as="geometry" />
        </mxCell>
        <mxCell id="7Uef_rGNitI4kY9C16Pc-80" value="" style="edgeStyle=orthogonalEdgeStyle;rounded=0;orthogonalLoop=1;jettySize=auto;html=1;" edge="1" parent="1" source="7Uef_rGNitI4kY9C16Pc-56" target="7Uef_rGNitI4kY9C16Pc-50">
          <mxGeometry relative="1" as="geometry" />
        </mxCell>
        <mxCell id="7Uef_rGNitI4kY9C16Pc-56" value="Brand" style="rounded=0;whiteSpace=wrap;html=1;fillColor=#dae8fc;strokeColor=#6c8ebf;" vertex="1" parent="1">
          <mxGeometry x="605" y="470" width="110" height="30" as="geometry" />
        </mxCell>
        <mxCell id="7Uef_rGNitI4kY9C16Pc-59" value="brand_name&lt;br&gt;" style="ellipse;whiteSpace=wrap;html=1;fillColor=#fff2cc;strokeColor=#d6b656;" vertex="1" parent="1">
          <mxGeometry x="700" y="420" width="100" height="30" as="geometry" />
        </mxCell>
        <mxCell id="7Uef_rGNitI4kY9C16Pc-64" value="Product_id" style="ellipse;whiteSpace=wrap;html=1;fillColor=#fff2cc;strokeColor=#d6b656;" vertex="1" parent="1">
          <mxGeometry x="740" y="690" width="100" height="30" as="geometry" />
        </mxCell>
        <mxCell id="7Uef_rGNitI4kY9C16Pc-65" value="product_name" style="ellipse;whiteSpace=wrap;html=1;fillColor=#fff2cc;strokeColor=#d6b656;" vertex="1" parent="1">
          <mxGeometry x="700" y="800" width="120" height="30" as="geometry" />
        </mxCell>
        <mxCell id="7Uef_rGNitI4kY9C16Pc-66" value="Product_details&lt;br&gt;" style="ellipse;whiteSpace=wrap;html=1;fillColor=#fff2cc;strokeColor=#d6b656;" vertex="1" parent="1">
          <mxGeometry x="500" y="860" width="120" height="30" as="geometry" />
        </mxCell>
        <mxCell id="7Uef_rGNitI4kY9C16Pc-75" value="" style="edgeStyle=orthogonalEdgeStyle;rounded=0;orthogonalLoop=1;jettySize=auto;html=1;" edge="1" parent="1" source="7Uef_rGNitI4kY9C16Pc-74" target="7Uef_rGNitI4kY9C16Pc-64">
          <mxGeometry relative="1" as="geometry" />
        </mxCell>
        <mxCell id="7Uef_rGNitI4kY9C16Pc-76" value="" style="edgeStyle=orthogonalEdgeStyle;rounded=0;orthogonalLoop=1;jettySize=auto;html=1;" edge="1" parent="1" source="7Uef_rGNitI4kY9C16Pc-74" target="7Uef_rGNitI4kY9C16Pc-65">
          <mxGeometry relative="1" as="geometry" />
        </mxCell>
        <mxCell id="7Uef_rGNitI4kY9C16Pc-78" style="edgeStyle=orthogonalEdgeStyle;rounded=0;orthogonalLoop=1;jettySize=auto;html=1;entryX=0.425;entryY=0;entryDx=0;entryDy=0;entryPerimeter=0;" edge="1" parent="1" source="7Uef_rGNitI4kY9C16Pc-74" target="7Uef_rGNitI4kY9C16Pc-66">
          <mxGeometry relative="1" as="geometry" />
        </mxCell>
        <mxCell id="7Uef_rGNitI4kY9C16Pc-74" value="Products" style="rounded=0;whiteSpace=wrap;html=1;fillColor=#dae8fc;strokeColor=#6c8ebf;" vertex="1" parent="1">
          <mxGeometry x="590" y="680" width="110" height="40" as="geometry" />
        </mxCell>
        <mxCell id="7Uef_rGNitI4kY9C16Pc-94" style="edgeStyle=orthogonalEdgeStyle;rounded=0;orthogonalLoop=1;jettySize=auto;html=1;entryX=0;entryY=0.5;entryDx=0;entryDy=0;" edge="1" parent="1" source="7Uef_rGNitI4kY9C16Pc-83" target="7Uef_rGNitI4kY9C16Pc-91">
          <mxGeometry relative="1" as="geometry">
            <Array as="points">
              <mxPoint x="175" y="410" />
              <mxPoint x="313" y="410" />
              <mxPoint x="313" y="420" />
              <mxPoint x="395" y="420" />
            </Array>
          </mxGeometry>
        </mxCell>
        <mxCell id="7Uef_rGNitI4kY9C16Pc-99" style="edgeStyle=orthogonalEdgeStyle;rounded=0;orthogonalLoop=1;jettySize=auto;html=1;" edge="1" parent="1" source="7Uef_rGNitI4kY9C16Pc-83" target="7Uef_rGNitI4kY9C16Pc-96">
          <mxGeometry relative="1" as="geometry" />
        </mxCell>
        <mxCell id="7Uef_rGNitI4kY9C16Pc-100" value="" style="edgeStyle=orthogonalEdgeStyle;rounded=0;orthogonalLoop=1;jettySize=auto;html=1;" edge="1" parent="1" source="7Uef_rGNitI4kY9C16Pc-83" target="7Uef_rGNitI4kY9C16Pc-97">
          <mxGeometry relative="1" as="geometry" />
        </mxCell>
        <mxCell id="7Uef_rGNitI4kY9C16Pc-83" value="Category" style="rounded=0;whiteSpace=wrap;html=1;fillColor=#dae8fc;strokeColor=#6c8ebf;" vertex="1" parent="1">
          <mxGeometry x="120" y="430" width="110" height="50" as="geometry" />
        </mxCell>
        <mxCell id="7Uef_rGNitI4kY9C16Pc-86" value="" style="edgeStyle=orthogonalEdgeStyle;rounded=0;orthogonalLoop=1;jettySize=auto;html=1;" edge="1" parent="1" source="7Uef_rGNitI4kY9C16Pc-84" target="7Uef_rGNitI4kY9C16Pc-83">
          <mxGeometry relative="1" as="geometry" />
        </mxCell>
        <mxCell id="7Uef_rGNitI4kY9C16Pc-84" value="has" style="rhombus;whiteSpace=wrap;html=1;fillColor=#f8cecc;strokeColor=#b85450;" vertex="1" parent="1">
          <mxGeometry x="290" y="430" width="40" height="40" as="geometry" />
        </mxCell>
        <mxCell id="7Uef_rGNitI4kY9C16Pc-30" value="Online&lt;br&gt;Shopping&amp;nbsp;&lt;br&gt;system" style="rounded=0;whiteSpace=wrap;html=1;fillColor=#dae8fc;strokeColor=#6c8ebf;" vertex="1" parent="1">
          <mxGeometry x="370" y="490" width="90" height="60" as="geometry" />
        </mxCell>
        <mxCell id="7Uef_rGNitI4kY9C16Pc-95" style="edgeStyle=orthogonalEdgeStyle;rounded=0;orthogonalLoop=1;jettySize=auto;html=1;entryX=0;entryY=0.5;entryDx=0;entryDy=0;" edge="1" parent="1" source="7Uef_rGNitI4kY9C16Pc-91" target="7Uef_rGNitI4kY9C16Pc-56">
          <mxGeometry relative="1" as="geometry" />
        </mxCell>
        <mxCell id="7Uef_rGNitI4kY9C16Pc-91" value="has" style="rhombus;whiteSpace=wrap;html=1;fillColor=#f8cecc;strokeColor=#b85450;" vertex="1" parent="1">
          <mxGeometry x="395" y="410" width="40" height="40" as="geometry" />
        </mxCell>
        <mxCell id="7Uef_rGNitI4kY9C16Pc-96" value="Category name&lt;br&gt;" style="ellipse;whiteSpace=wrap;html=1;fillColor=#fff2cc;strokeColor=#d6b656;" vertex="1" parent="1">
          <mxGeometry x="10" y="490" width="100" height="30" as="geometry" />
        </mxCell>
        <mxCell id="7Uef_rGNitI4kY9C16Pc-97" value="Category_id" style="ellipse;whiteSpace=wrap;html=1;fillColor=#fff2cc;strokeColor=#d6b656;" vertex="1" parent="1">
          <mxGeometry x="130" y="520" width="100" height="30" as="geometry" />
        </mxCell>
      </root>
    </mxGraphModel>
  </diagram>
</mxfile>
